<svg width="22" height="22" viewBox="0 0 22 22" fill="none" xmlns="http://www.w3.org/2000/svg">
<g clip-path="url(#clip0)">
<path d="M5.45294 6.10669L3.60933 6.24912C3.09633 6.28877 2.63943 6.55764 2.35573 6.98677L0.229534 10.2025C0.0143666 10.5279 -0.019839 10.9352 0.137973 11.292C0.295826 11.6488 0.620219 11.8974 1.00571 11.9571L2.69376 12.2185C3.08864 10.123 4.03393 8.03255 5.45294 6.10669Z" fill="#F15060"/>
<path d="M9.4613 18.9861L9.72277 20.6742C9.7825 21.0597 10.0311 21.384 10.3878 21.5419C10.5363 21.6075 10.6934 21.6399 10.8497 21.6399C11.0693 21.6399 11.2873 21.576 11.4774 21.4503L14.6932 19.3241C15.1223 19.0404 15.3912 18.5835 15.4308 18.0705L15.5732 16.2269C13.6473 17.646 11.5569 18.5913 9.4613 18.9861Z" fill="#F15060"/>
<path d="M8.82642 17.816C8.88502 17.816 8.94396 17.8112 9.00277 17.8014C9.88073 17.6546 10.7269 17.4073 11.5342 17.0836L4.59618 10.1456C4.27249 10.9528 4.0252 11.799 3.8784 12.677C3.82055 13.0231 3.93663 13.3757 4.18471 13.6238L8.05598 17.4951C8.26196 17.701 8.53997 17.816 8.82642 17.816Z" fill="#F15060"/>
<path d="M19.6231 9.79472C21.3209 6.51239 21.3838 3.04378 21.295 1.41704C21.2646 0.859646 20.8203 0.415263 20.2628 0.384881C19.9979 0.370417 19.684 0.359985 19.3302 0.359985C17.5112 0.359985 14.633 0.635501 11.8851 2.0568C9.70137 3.18634 6.83786 5.67346 5.14844 8.94199C5.16839 8.95758 5.18788 8.97412 5.20625 8.99249L12.6874 16.4737C12.7058 16.4921 12.7223 16.5115 12.7379 16.5315C16.0064 14.842 18.4936 11.9785 19.6231 9.79472ZM12.4129 4.85868C13.6282 3.64336 15.6058 3.64323 16.8212 4.85868C17.4099 5.4474 17.7342 6.23023 17.7342 7.06284C17.7342 7.89546 17.4099 8.67828 16.8212 9.26701C16.2136 9.87461 15.4152 10.1785 14.6171 10.1786C13.8187 10.1786 13.0206 9.87477 12.4129 9.26701C11.8241 8.67828 11.4998 7.89546 11.4998 7.06284C11.4998 6.23023 11.8241 5.4474 12.4129 4.85868Z" fill="#F15060"/>
<path d="M13.2945 8.38528C14.0237 9.11449 15.2103 9.11453 15.9395 8.38528C16.2928 8.03199 16.4873 7.56234 16.4873 7.06276C16.4873 6.56318 16.2928 6.09352 15.9395 5.74028C15.575 5.37565 15.096 5.19336 14.617 5.19336C14.1381 5.19336 13.6591 5.37565 13.2945 5.74028C12.9413 6.09352 12.7467 6.56318 12.7467 7.06276C12.7467 7.56234 12.9413 8.03204 13.2945 8.38528Z" fill="#FBEBF6"/>
<path d="M0.676071 17.8966C0.835629 17.8966 0.995187 17.8357 1.11688 17.714L3.15232 15.6785C3.3958 15.4351 3.3958 15.0403 3.15232 14.7969C2.90889 14.5534 2.51413 14.5534 2.27066 14.7969L0.235217 16.8323C-0.00825598 17.0758 -0.00825598 17.4705 0.235217 17.714C0.356954 17.8357 0.516512 17.8966 0.676071 17.8966Z" fill="#F15060"/>
<path d="M5.01763 16.6623C4.77419 16.4189 4.37943 16.4189 4.13596 16.6623L0.222644 20.5757C-0.0208292 20.8191 -0.0208292 21.2139 0.222644 21.4573C0.34438 21.5791 0.503939 21.6399 0.663497 21.6399C0.823056 21.6399 0.982614 21.5791 1.10431 21.4573L5.01758 17.544C5.2611 17.3005 5.2611 16.9058 5.01763 16.6623Z" fill="#F15060"/>
<path d="M6.00121 18.5276L3.96581 20.563C3.72233 20.8065 3.72233 21.2012 3.96581 21.4447C4.08754 21.5664 4.2471 21.6273 4.40662 21.6273C4.56614 21.6273 4.72574 21.5665 4.84743 21.4447L6.88287 19.4092C7.12635 19.1658 7.12635 18.771 6.88287 18.5276C6.63944 18.2841 6.24468 18.2841 6.00121 18.5276Z" fill="#F15060"/>
</g>
<defs>
<clipPath id="clip0">
<rect width="21.28" height="21.28" fill="white" transform="translate(0.039917 0.359985)"/>
</clipPath>
</defs>
</svg>
