<svg width="58" height="59" viewBox="0 0 58 59" fill="none" xmlns="http://www.w3.org/2000/svg">
<ellipse cx="29" cy="29.5" rx="29" ry="29.5" fill="#FBEBF6"/>
<path d="M46.75 29.125C43.375 22.5 36.625 18 29 18C21.3125 18 14.5625 22.5 11.1875 29.125C11.0625 29.375 11 29.6875 11 30C11 30.375 11.0625 30.6875 11.1875 30.9375C14.5625 37.5625 21.3125 42 29 42C36.625 42 43.375 37.5625 46.75 30.9375C46.875 30.6875 46.9375 30.375 46.9375 30.0625C46.9375 29.6875 46.875 29.375 46.75 29.125ZM29 39C24 39 20 35 20 30C20 25.0625 24 21 29 21C33.9375 21 38 25.0625 38 30V30.0625C38 35 33.9375 39.0625 29 39.0625V39ZM29 24C28.4375 24.0625 27.875 24.125 27.375 24.25C27.75 24.75 27.9375 25.375 27.9375 26.0625C27.9375 27.6875 26.625 29 25 29C24.3125 29 23.6875 28.8125 23.1875 28.4375C23.0625 28.9375 23 29.5 23 30C23 33.3125 25.6875 36 29 36C32.3125 36 35 33.3125 35 30C35 26.6875 32.3125 24.0625 29 24.0625V24Z" fill="#F15060"/>
</svg>
