<svg width="58" height="59" viewBox="0 0 58 59" fill="none" xmlns="http://www.w3.org/2000/svg">
<ellipse cx="29" cy="29.5" rx="29" ry="29.5" fill="#FBEBF6"/>
<path d="M28.5 14.5C19.9375 14.5 13 21.4375 13 30C13 38.5625 19.9375 45.5 28.5 45.5C37.0625 45.5 44 38.5625 44 30C44 21.4375 37.0625 14.5 28.5 14.5ZM28.5 20.5C31.5 20.5 34 23 34 26C34 29.0625 31.5 31.5 28.5 31.5C25.4375 31.5 23 29.0625 23 26C23 23 25.4375 20.5 28.5 20.5ZM28.5 42C24.8125 42 21.5 40.375 19.3125 37.75C20.5 35.5625 22.8125 34 25.5 34C25.625 34 25.75 34.0625 25.9375 34.125C26.75 34.375 27.5625 34.5 28.5 34.5C29.375 34.5 30.25 34.375 31 34.125C31.1875 34.0625 31.3125 34 31.5 34C34.125 34 36.4375 35.5625 37.625 37.75C35.4375 40.375 32.125 42 28.5 42Z" fill="#F15060"/>
</svg>
