<svg width="58" height="59" viewBox="0 0 58 59" fill="none" xmlns="http://www.w3.org/2000/svg">
<ellipse cx="29" cy="29.5" rx="29" ry="29.5" fill="#FBEBF6"/>
<path d="M42.5 25.4375L42.9375 22.9375C43.0625 22.4375 42.6875 22 42.1875 22H37.5625L38.4375 16.9375C38.5625 16.4375 38.1875 16 37.6875 16H35.1875C34.8125 16 34.5 16.3125 34.4375 16.625L33.5 22H27.3125L28.25 16.9375C28.3125 16.4375 27.9375 16 27.5 16H24.9375C24.5625 16 24.25 16.3125 24.1875 16.625L23.25 22H18.3125C17.9375 22 17.625 22.3125 17.5625 22.625L17.125 25.125C17.0625 25.625 17.375 26 17.875 26H22.5625L21.125 34H16.1875C15.8125 34 15.5 34.3125 15.4375 34.625L15 37.125C14.875 37.625 15.25 38 15.75 38H20.375L19.5 43.125C19.375 43.625 19.75 44 20.25 44H22.75C23.125 44 23.4375 43.75 23.5 43.4375L24.4375 38H30.625L29.6875 43.125C29.625 43.625 30 44 30.4375 44H33C33.375 44 33.6875 43.75 33.75 43.4375L34.6875 38H39.625C40 38 40.3125 37.75 40.375 37.4375L40.8125 34.9375C40.875 34.4375 40.5625 34 40.0625 34H35.375L36.8125 26H41.75C42.125 26 42.4375 25.75 42.5 25.4375ZM31.3125 34H25.1875L26.625 26H32.75L31.3125 34Z" fill="#F15060"/>
</svg>
