<svg width="58" height="59" viewBox="0 0 58 59" fill="none" xmlns="http://www.w3.org/2000/svg">
<ellipse cx="29" cy="29.5" rx="29" ry="29.5" fill="#FBEBF6"/>
<path d="M44.875 30C40.5 29.9375 37 26.4375 37 22C32.5625 22 29.0625 18.5 29 14.125C27.25 13.875 25.5625 14.125 24 14.9375L19.6875 17.125C18.125 17.9375 16.875 19.1875 16.0625 20.75L13.875 25.0625C13.3125 26.1875 13 27.4375 13 28.8125C13 29.25 13 29.6875 13.0625 30.125L13.8125 34.875C14.125 36.625 14.9375 38.25 16.125 39.4375L19.5625 42.875C20.75 44.0625 22.375 44.875 24.125 45.1875L28.9375 45.9375C30.625 46.1875 32.375 45.9375 33.9375 45.125L38.25 42.9375C39.8125 42.125 41.0625 40.875 41.875 39.3125L44.0625 35C44.875 33.5 45.125 31.75 44.875 30ZM24 37C22.875 37 22 36.125 22 35C22 33.9375 22.875 33 24 33C25.0625 33 26 33.9375 26 35C26 36.125 25.0625 37 24 37ZM26 27C24.875 27 24 26.125 24 25C24 23.9375 24.875 23 26 23C27.0625 23 28 23.9375 28 25C28 26.125 27.0625 27 26 27ZM36 35C34.875 35 34 34.125 34 33C34 31.9375 34.875 31 36 31C37.0625 31 38 31.9375 38 33C38 34.125 37.0625 35 36 35Z" fill="#F15060"/>
</svg>
