<svg width="58" height="59" viewBox="0 0 58 59" fill="none" xmlns="http://www.w3.org/2000/svg">
<ellipse cx="29" cy="29.5" rx="29" ry="29.5" fill="#FBEBF6"/>
<path d="M13 29.8125C13 30.625 13.3125 31.375 13.875 31.9375L27.0625 45.125C28.25 46.3125 30.1875 46.3125 31.3125 45.125L44.0625 32.375C45.25 31.25 45.25 29.3125 44.0625 28.125L30.875 14.9375C30.3125 14.375 29.5625 14 28.75 14H16C14.3125 14 13 15.375 13 17V29.8125ZM20 18C21.625 18 23 19.375 23 21C23 22.6875 21.625 24 20 24C18.3125 24 17 22.6875 17 21C17 19.375 18.3125 18 20 18Z" fill="#F15060"/>
</svg>
