<svg width="16" height="17" viewBox="0 0 16 17" fill="none" xmlns="http://www.w3.org/2000/svg">
<path d="M14.0625 0.375H1.6875C0.738281 0.375 0 1.14844 0 2.0625V14.4375C0 15.3867 0.738281 16.125 1.6875 16.125H6.50391V10.7812H4.28906V8.25H6.50391V6.35156C6.50391 4.17188 7.80469 2.94141 9.77344 2.94141C10.7578 2.94141 11.7422 3.11719 11.7422 3.11719V5.26172H10.6523C9.5625 5.26172 9.21094 5.92969 9.21094 6.63281V8.25H11.6367L11.25 10.7812H9.21094V16.125H14.0625C14.9766 16.125 15.75 15.3867 15.75 14.4375V2.0625C15.75 1.14844 14.9766 0.375 14.0625 0.375Z" fill="#F15060"/>
</svg>
