<svg width="58" height="59" viewBox="0 0 58 59" fill="none" xmlns="http://www.w3.org/2000/svg">
<ellipse cx="29" cy="29.5" rx="29" ry="29.5" fill="#FBEBF6"/>
<path d="M35 24V22C35 17.625 31.375 14 27 14C22.5625 14 19 17.625 19 22V24H13V41C13 43.8125 15.1875 46 18 46H36C38.75 46 41 43.8125 41 41V24H35ZM23 22C23 19.8125 24.75 18 27 18C29.1875 18 31 19.8125 31 22V24H23V22ZM33 29.5C32.125 29.5 31.5 28.875 31.5 28C31.5 27.1875 32.125 26.5 33 26.5C33.8125 26.5 34.5 27.1875 34.5 28C34.5 28.875 33.8125 29.5 33 29.5ZM21 29.5C20.125 29.5 19.5 28.875 19.5 28C19.5 27.1875 20.125 26.5 21 26.5C21.8125 26.5 22.5 27.1875 22.5 28C22.5 28.875 21.8125 29.5 21 29.5Z" fill="#F15060"/>
</svg>
