<svg width="28" height="28" viewBox="0 0 28 28" fill="none" xmlns="http://www.w3.org/2000/svg">
<path d="M7.1224 7.56152L4.69659 7.74894C4.02159 7.80111 3.42042 8.15488 3.04712 8.71952L0.249496 12.9508C-0.0336189 13.379 -0.0786264 13.9148 0.12902 14.3843C0.336722 14.8537 0.763555 15.1808 1.27078 15.2594L3.49189 15.6034C4.01147 12.8461 5.25528 10.0956 7.1224 7.56152Z" fill="white"/>
<path d="M12.3966 24.5082L12.7406 26.7293C12.8192 27.2365 13.1464 27.6634 13.6157 27.871C13.811 27.9574 14.0177 28.0001 14.2234 28.0001C14.5123 28.0001 14.7992 27.9159 15.0493 27.7505L19.2807 24.953C19.8453 24.5796 20.1991 23.9784 20.2511 23.3035L20.4386 20.8777C17.9045 22.7449 15.154 23.9887 12.3966 24.5082Z" fill="white"/>
<path d="M11.5612 22.9686C11.6383 22.9686 11.7159 22.9622 11.7933 22.9493C12.9485 22.7562 14.0619 22.4308 15.124 22.0049L5.99513 12.876C5.56923 13.9381 5.24384 15.0515 5.05069 16.2067C4.97456 16.6621 5.1273 17.126 5.45373 17.4525L10.5475 22.5463C10.8185 22.8173 11.1843 22.9686 11.5612 22.9686Z" fill="white"/>
<path d="M25.7674 12.4141C28.0013 8.09527 28.0841 3.53131 27.9673 1.39086C27.9274 0.657448 27.3426 0.0727338 26.6092 0.0327576C26.2607 0.0137265 25.8476 0 25.3821 0C22.9886 0 19.2015 0.362521 15.5859 2.23265C12.7125 3.71888 8.94475 6.99141 6.72183 11.2921C6.74808 11.3126 6.77373 11.3344 6.7979 11.3586L16.6416 21.2022C16.6657 21.2264 16.6875 21.252 16.708 21.2782C21.0087 19.0553 24.2812 15.2875 25.7674 12.4141ZM16.2803 5.91933C17.8794 4.32022 20.4815 4.32006 22.0807 5.91933C22.8554 6.69397 23.282 7.724 23.282 8.81955C23.282 9.91509 22.8554 10.9451 22.0807 11.7198C21.2812 12.5192 20.2307 12.9191 19.1805 12.9192C18.1301 12.9192 17.08 12.5195 16.2803 11.7198C15.5056 10.9451 15.0789 9.91509 15.0789 8.81955C15.0789 7.724 15.5056 6.69397 16.2803 5.91933Z" fill="white"/>
</svg>
