<svg width="45" height="45" viewBox="0 0 45 45" fill="none" xmlns="http://www.w3.org/2000/svg">
<rect y="45" width="45" height="45" rx="22.5" transform="rotate(-90 0 45)" fill="#F15060"/>
<path d="M22.8571 15.7165C22.5536 15.7165 22.2589 15.8326 22.0536 16.0469L16.2411 21.8594C16.0268 22.0737 15.9018 22.3683 15.9018 22.6719C15.9018 22.9754 16.0268 23.2612 16.2411 23.4754L16.9107 24.1451C17.1161 24.3594 17.4107 24.4844 17.7143 24.4844C18.0179 24.4844 18.3125 24.3594 18.5179 24.1451L21.1429 21.529L21.1429 27.8147C21.1429 28.4576 21.6786 28.8594 22.2857 28.8594L23.4286 28.8594C24.0357 28.8594 24.5714 28.4576 24.5714 27.8147L24.5714 21.529L27.1875 24.1451C27.4018 24.3594 27.6964 24.4844 28 24.4844C28.3036 24.4844 28.5982 24.3594 28.8125 24.1451L29.4821 23.4754C29.6875 23.2612 29.8125 22.9754 29.8125 22.6719C29.8125 22.3683 29.6875 22.0737 29.4821 21.8594L23.6696 16.0469C23.4554 15.8326 23.1607 15.7165 22.8571 15.7165Z" fill="white"/>
</svg>
