<svg xmlns="http://www.w3.org/2000/svg" viewBox="30 17 87 87" fill="none">
<g filter="url(#filter0_d_162_162)">
<rect x="48" y="27" width="64" height="64" rx="32" fill="white"/>
</g>
<g filter="url(#filter1_d_162_162)">
<rect x="60" y="39" width="40" height="40" rx="20" fill="#FDDDE0"/>
</g>
<path d="M69 59.6211C69 60.1797 69.2148 60.6953 69.6016 61.082L78.668 70.1484C79.4844 70.9648 80.8164 70.9648 81.5898 70.1484L90.3555 61.3828C91.1719 60.6094 91.1719 59.2773 90.3555 58.4609L81.2891 49.3945C80.9023 49.0078 80.3867 48.75 79.8281 48.75H71.0625C69.9023 48.75 69 49.6953 69 50.8125V59.6211ZM73.8125 51.5C74.9297 51.5 75.875 52.4453 75.875 53.5625C75.875 54.7227 74.9297 55.625 73.8125 55.625C72.6523 55.625 71.75 54.7227 71.75 53.5625C71.75 52.4453 72.6523 51.5 73.8125 51.5Z" fill="#F15060"/>
<defs>
<filter id="filter0_d_162_162" x="0" y="0" width="160" height="160" filterUnits="userSpaceOnUse" color-interpolation-filters="sRGB">




<feColorMatrix type="matrix" values="0 0 0 0 0.121569 0 0 0 0 0.117647 0 0 0 0 0.152941 0 0 0 0.08 0"/>
<feBlend mode="normal" in2="BackgroundImageFix" result="effect1_dropShadow_162_162"/>
<feBlend mode="normal" in="SourceGraphic" in2="effect1_dropShadow_162_162" result="shape"/>
</filter>
<filter id="filter1_d_162_162" x="12" y="12" width="136" height="136" filterUnits="userSpaceOnUse" color-interpolation-filters="sRGB">




<feColorMatrix type="matrix" values="0 0 0 0 0.121569 0 0 0 0 0.117647 0 0 0 0 0.152941 0 0 0 0.08 0"/>
<feBlend mode="normal" in2="BackgroundImageFix" result="effect1_dropShadow_162_162"/>
<feBlend mode="normal" in="SourceGraphic" in2="effect1_dropShadow_162_162" result="shape"/>
</filter>
</defs>
</svg>