<svg width="16" height="17" viewBox="0 0 16 17" fill="none" xmlns="http://www.w3.org/2000/svg">
<path d="M7.875 6.38672C6.82031 6.38672 5.97656 7.23047 5.97656 8.25C5.97656 9.30469 6.82031 10.1484 7.875 10.1484C8.89453 10.1484 9.73828 9.30469 9.73828 8.25C9.73828 7.23047 8.89453 6.38672 7.875 6.38672ZM12.2344 4.94531C12.0586 4.45312 11.6719 4.06641 11.1797 3.89062C10.4414 3.57422 8.68359 3.64453 7.875 3.64453C7.03125 3.64453 5.27344 3.57422 4.53516 3.89062C4.04297 4.06641 3.65625 4.45312 3.48047 4.94531C3.19922 5.68359 3.23438 7.44141 3.23438 8.25C3.23438 9.09375 3.19922 10.8516 3.48047 11.5898C3.65625 12.082 4.04297 12.4688 4.53516 12.6445C5.27344 12.9609 7.03125 12.8906 7.875 12.8906C8.68359 12.8906 10.4414 12.9609 11.1797 12.6445C11.6719 12.4688 12.0586 12.082 12.2344 11.5898C12.5508 10.8516 12.4805 9.09375 12.4805 8.25C12.4805 7.44141 12.5508 5.68359 12.2344 4.94531ZM7.875 11.1328C6.25781 11.1328 4.99219 9.86719 4.99219 8.25C4.99219 6.66797 6.25781 5.36719 7.875 5.36719C9.45703 5.36719 10.7578 6.66797 10.7578 8.25V8.28516C10.7578 9.86719 9.45703 11.168 7.875 11.168V11.1328ZM10.8633 5.92969C10.4766 5.92969 10.1953 5.64844 10.1953 5.26172C10.1953 4.875 10.4766 4.59375 10.8633 4.59375C11.2148 4.59375 11.5312 4.875 11.5312 5.26172C11.5312 5.64844 11.2148 5.92969 10.8633 5.92969ZM14.0625 0.375H1.6875C0.738281 0.375 0 1.14844 0 2.0625V14.4375C0 15.3867 0.738281 16.125 1.6875 16.125H14.0625C14.9766 16.125 15.75 15.3867 15.75 14.4375V2.0625C15.75 1.14844 14.9766 0.375 14.0625 0.375ZM13.4297 10.5703C13.3945 11.4844 13.1836 12.293 12.5508 12.9258C11.8828 13.5938 11.0742 13.8047 10.1953 13.8398C9.24609 13.9102 6.46875 13.9102 5.55469 13.8398C4.64062 13.8047 3.83203 13.5938 3.19922 12.9258C2.53125 12.293 2.32031 11.4844 2.28516 10.5703C2.21484 9.65625 2.21484 6.87891 2.28516 5.92969C2.32031 5.05078 2.53125 4.24219 3.19922 3.57422C3.83203 2.94141 4.64062 2.73047 5.55469 2.69531C6.46875 2.625 9.24609 2.625 10.1953 2.69531C11.0742 2.73047 11.8828 2.94141 12.5508 3.60938C13.1836 4.24219 13.3945 5.05078 13.4297 5.96484C13.5 6.87891 13.5 9.65625 13.4297 10.5703Z" fill="#F15060"/>
</svg>
