<svg width="28" height="28" viewBox="0 0 28 28" fill="none" xmlns="http://www.w3.org/2000/svg">
<path d="M22 13C22 12.625 21.625 12.25 21.25 12.25H15.75V6.75C15.75 6.375 15.375 6 15 6H13C12.5625 6 12.25 6.375 12.25 6.75V12.25H6.75C6.3125 12.25 6 12.625 6 13V15C6 15.4375 6.3125 15.75 6.75 15.75H12.25V21.25C12.25 21.6875 12.5625 22 13 22H15C15.375 22 15.75 21.6875 15.75 21.25V15.75H21.25C21.625 15.75 22 15.4375 22 15V13ZM28 3C28 1.375 26.625 0 25 0H3C1.3125 0 0 1.375 0 3V25C0 26.6875 1.3125 28 3 28H25C26.625 28 28 26.6875 28 25V3ZM25 24.625C25 24.875 24.8125 25 24.625 25H3.375C3.125 25 3 24.875 3 24.625V3.375C3 3.1875 3.125 3 3.375 3H24.625C24.8125 3 25 3.1875 25 3.375V24.625Z" fill="#F15060"/>
</svg>
