<svg width="58" height="59" viewBox="0 0 58 59" fill="none" xmlns="http://www.w3.org/2000/svg">
<ellipse cx="29" cy="29.5" rx="29" ry="29.5" fill="#FBEBF6"/>
<path d="M45.5 18H16.5C15.625 18 15 18.6875 15 19.5V20H12.5C11.625 20 11 20.6875 11 21.5V38.5C11 40.4375 12.5625 42 14.5 42H44C45.625 42 47 40.6875 47 39V19.5C47 18.6875 46.3125 18 45.5 18ZM14.5 39C14.1875 39 14 38.8125 14 38.5V23H15V38.5C15 38.8125 14.75 39 14.5 39ZM29.25 38H19.75C19.3125 38 19 37.6875 19 37.25V36.75C19 36.375 19.3125 36 19.75 36H29.25C29.625 36 30 36.375 30 36.75V37.25C30 37.6875 29.625 38 29.25 38ZM42.25 38H32.75C32.3125 38 32 37.6875 32 37.25V36.75C32 36.375 32.3125 36 32.75 36H42.25C42.625 36 43 36.375 43 36.75V37.25C43 37.6875 42.625 38 42.25 38ZM29.25 32H19.75C19.3125 32 19 31.6875 19 31.25V30.75C19 30.375 19.3125 30 19.75 30H29.25C29.625 30 30 30.375 30 30.75V31.25C30 31.6875 29.625 32 29.25 32ZM42.25 32H32.75C32.3125 32 32 31.6875 32 31.25V30.75C32 30.375 32.3125 30 32.75 30H42.25C42.625 30 43 30.375 43 30.75V31.25C43 31.6875 42.625 32 42.25 32ZM42.25 26H19.75C19.3125 26 19 25.6875 19 25.25V22.75C19 22.375 19.3125 22 19.75 22H42.25C42.625 22 43 22.375 43 22.75V25.25C43 25.6875 42.625 26 42.25 26Z" fill="#F15060"/>
</svg>
