<svg xmlns="http://www.w3.org/2000/svg" viewBox="30 17 87 87" fill="none">

<g filter="url(#filter1_d_162_161)">
<rect x="60" y="39" width="40" height="40" rx="20" fill="#FDDDE0"/>
</g>
<path d="M88.9375 52.1875C87.7773 52.1875 86.875 53.1328 86.875 54.25H86.5312V52.918C86.5312 51.8008 85.6289 50.8555 84.4688 50.8125C83.3086 50.8125 82.4062 51.7578 82.4062 52.875V54.25H82.0625V52.2305C82.0625 51.1133 81.1602 50.168 80 50.125C78.8398 50.125 77.9375 51.0703 77.9375 52.1875V54.25H77.5938V52.918C77.5938 51.8008 76.6914 50.8555 75.5312 50.8125C74.3711 50.8125 73.4688 51.7578 73.4688 52.875V58.7188L73.125 58.418V56.3555C73.125 55.2383 72.2227 54.293 71.0625 54.25C69.9023 54.25 69 55.1953 69 56.3125V59.1914C69 60.3516 69.4727 61.4688 70.375 62.2852L75.1445 66.5391C75.6172 66.9258 75.875 67.4844 75.875 68.0859V68.3867C75.875 68.9453 76.3047 69.418 76.9062 69.418H87.2188C87.7773 69.418 88.25 68.9453 88.25 68.3867V68.2578C88.25 67.6992 88.3359 67.1406 88.5508 66.625L90.6562 61.6406C90.8711 61.125 91 60.6094 91 60.0508V54.293C91 53.1758 90.0977 52.2305 88.9375 52.1875Z" fill="#F15060"/>
<defs>
<filter id="filter0_d_162_161" x="0" y="0" width="160" height="160" filterUnits="userSpaceOnUse" color-interpolation-filters="sRGB">







</filter>
<filter id="filter1_d_162_161" x="12" y="12" width="136" height="136" filterUnits="userSpaceOnUse" color-interpolation-filters="sRGB">




<feColorMatrix type="matrix" values="0 0 0 0 0.121569 0 0 0 0 0.117647 0 0 0 0 0.152941 0 0 0 0.08 0"/>
<feBlend mode="normal" in2="BackgroundImageFix" result="effect1_dropShadow_162_161"/>
<feBlend mode="normal" in="SourceGraphic" in2="effect1_dropShadow_162_161" result="shape"/>
</filter>
</defs>
</svg>