<svg xmlns="http://www.w3.org/2000/svg" viewBox="30 17 87 87" fill="none">
<g filter="url(#filter0_d_162_160)">
<rect x="48" y="27" width="64" height="64" rx="32" fill="white"/>
</g>
<g filter="url(#filter1_d_162_160)">
<rect x="60" y="39" width="40" height="40" rx="20" fill="#FDDDE0"/>
</g>
<path d="M90.957 49.6523C90.957 49.6094 90.957 49.5234 90.957 49.4805C90.957 49.0938 90.6562 48.793 90.2695 48.793C90.2266 48.793 90.1406 48.793 90.0977 48.793C88.4219 49.3086 85.2852 50.2969 82.0195 51.457C81.9336 51.1562 81.8477 50.8555 81.7617 50.6406C81.6758 50.3398 81.418 50.168 81.1172 50.168C80.9883 50.168 80.9023 50.168 80.7734 50.2109C78.9688 51.1992 74.2422 53.7773 71.5781 56.3555C71.5352 56.3984 71.4922 56.4414 71.4492 56.4844C69.9023 57.9883 69 60.0938 69 62.4141C69 67.0117 72.7383 70.793 77.3359 70.793C79.6562 70.793 81.7617 69.8477 83.2656 68.3008C83.3086 68.2578 83.3516 68.2148 83.3945 68.1719C85.9727 65.5078 88.5938 60.7812 89.5391 58.9766C89.582 58.8477 89.625 58.7617 89.625 58.6328C89.625 58.332 89.4102 58.0742 89.1094 57.9883C88.8945 57.9023 88.6367 57.8164 88.3359 57.7305C89.4961 54.4648 90.4414 51.3281 90.957 49.6523ZM82.707 62.543C82.707 65.5508 80.2578 68 77.207 68C74.1992 68 71.707 65.5508 71.707 62.543C71.707 59.4922 74.1992 57.043 77.207 57.043C80.2578 57.043 82.707 59.4922 82.707 62.543ZM77.207 61.168C77.207 61.125 77.207 61.125 77.207 61.125C77.207 60.3945 76.6055 59.793 75.875 59.793H75.832C75.1016 59.793 74.457 60.3945 74.457 61.125C74.457 61.8984 75.1016 62.5 75.832 62.5C76.6055 62.5 77.207 61.8984 77.207 61.168ZM78.582 64.6055C78.582 64.2188 78.2812 63.918 77.8945 63.918C77.5508 63.918 77.207 64.2188 77.207 64.5625C77.207 64.9492 77.5508 65.25 77.8945 65.25C78.2812 65.25 78.582 64.9492 78.582 64.6055Z" fill="#F15060"/>
<defs>
<filter id="filter0_d_162_160" x="0" y="0" width="160" height="160" filterUnits="userSpaceOnUse" color-interpolation-filters="sRGB">




<feColorMatrix type="matrix" values="0 0 0 0 0.121569 0 0 0 0 0.117647 0 0 0 0 0.152941 0 0 0 0.08 0"/>

<feBlend mode="normal" in="SourceGraphic" in2="effect1_dropShadow_162_160" result="shape"/>
</filter>
<filter id="filter1_d_162_160" x="12" y="12" width="136" height="136" filterUnits="userSpaceOnUse" color-interpolation-filters="sRGB">




<feColorMatrix type="matrix" values="0 0 0 0 0.121569 0 0 0 0 0.117647 0 0 0 0 0.152941 0 0 0 0.08 0"/>
<feBlend mode="normal" in2="BackgroundImageFix" result="effect1_dropShadow_162_160"/>
<feBlend mode="normal" in="SourceGraphic" in2="effect1_dropShadow_162_160" result="shape"/>
</filter>
</defs>
</svg>