<svg xmlns="http://www.w3.org/2000/svg" xmlns:xlink="http://www.w3.org/1999/xlink" viewBox="0 0 40.08 33.9"><defs><style>.cls-1{fill:none;}.cls-2{fill:#eaf9ff;}.cls-3{fill:#fff;}.cls-4{clip-path:url(#clip-path);}.cls-5{fill:#f15060;}.cls-6{fill:#fbebf6;}.cls-7{fill:#9cd62d;}</style><clipPath id="clip-path"><rect class="cls-1" x="7.7" y="7.7" width="18.49" height="18.49"/></clipPath></defs><g id="Layer_2" data-name="Layer 2"><g id="Layer_1-2" data-name="Layer 1"><path class="cls-2" d="M17,0h0a17,17,0,0,1,17,17h0A17,17,0,0,1,17,33.9h0A17,17,0,0,1,0,17H0A17,17,0,0,1,17,0Z"/><circle class="cls-3" cx="33.9" cy="14.74" r="5.9"/><g class="cls-4"><path class="cls-5" d="M12.41,12.7l-1.6.12a1.44,1.44,0,0,0-1.09.64l-1.85,2.8a1,1,0,0,0-.08.94,1,1,0,0,0,.75.58L10,18A13,13,0,0,1,12.41,12.7Z"/><path class="cls-5" d="M15.89,23.89l.23,1.46a1,1,0,0,0,.57.76,1,1,0,0,0,.41.08,1,1,0,0,0,.54-.16l2.8-1.85a1.45,1.45,0,0,0,.64-1.09l.12-1.6A13.26,13.26,0,0,1,15.89,23.89Z"/><path class="cls-5" d="M15.34,22.87h.15a10.28,10.28,0,0,0,2.2-.63l-6-6a10.69,10.69,0,0,0-.62,2.2.94.94,0,0,0,.27.82l3.36,3.36A1,1,0,0,0,15.34,22.87Z"/><path class="cls-5" d="M24.72,15.9a14.61,14.61,0,0,0,1.45-7.28.94.94,0,0,0-.9-.89q-.35,0-.81,0A14.21,14.21,0,0,0,18,9.18a14.71,14.71,0,0,0-5.86,6l0,0,6.5,6.5,0,.05A14.63,14.63,0,0,0,24.72,15.9Zm-6.27-4.29a2.72,2.72,0,0,1,3.83,0,2.71,2.71,0,0,1-1.91,4.62,2.71,2.71,0,0,1-1.92-4.62Z"/><path class="cls-6" d="M19.22,14.68a1.64,1.64,0,0,0,2.3,0A1.61,1.61,0,0,0,22,13.53a1.59,1.59,0,0,0-.47-1.15,1.63,1.63,0,1,0-2.3,2.3Z"/><path class="cls-5" d="M8.26,22.94a.52.52,0,0,0,.38-.16L10.41,21a.54.54,0,0,0,0-.76.55.55,0,0,0-.77,0L7.87,22a.54.54,0,0,0,0,.76A.54.54,0,0,0,8.26,22.94Z"/><path class="cls-5" d="M12,21.87a.55.55,0,0,0-.77,0l-3.4,3.4a.54.54,0,0,0,0,.76.54.54,0,0,0,.39.16A.54.54,0,0,0,8.63,26l3.4-3.4A.54.54,0,0,0,12,21.87Z"/><path class="cls-5" d="M12.88,23.49l-1.76,1.77a.52.52,0,0,0,0,.76.53.53,0,0,0,.76,0l1.77-1.76a.54.54,0,0,0-.77-.77Z"/></g><path class="cls-7" d="M38.1,13.59a.47.47,0,0,1-.14.35l-4.25,4.25a.5.5,0,0,1-.71,0l-2.83-2.83A.48.48,0,0,1,30,15a.5.5,0,0,1,.14-.36l.71-.7a.48.48,0,0,1,.7,0l1.77,1.77,3.2-3.19a.49.49,0,0,1,.35-.15.51.51,0,0,1,.35.15l.71.71A.47.47,0,0,1,38.1,13.59Zm2,1.26a6,6,0,1,0-6,6A6,6,0,0,0,40.08,14.85Z"/></g></g></svg>