<svg width="79" height="79" viewBox="0 0 79 79" fill="none" xmlns="http://www.w3.org/2000/svg">
<g filter="url(#filter0_d)">
<rect x="17" y="9" width="45" height="45" rx="22.5" fill="#1DA1F2"/>
</g>
<path d="M47.1875 21.125H32.0625C30.9023 21.125 30 22.0703 30 23.1875V38.3125C30 39.4727 30.9023 40.375 32.0625 40.375H47.1875C48.3047 40.375 49.25 39.4727 49.25 38.3125V23.1875C49.25 22.0703 48.3047 21.125 47.1875 21.125ZM45.082 27.957C45.082 28.0859 45.082 28.2148 45.082 28.3438C45.082 32.0391 42.2461 36.3359 37.0469 36.3359C35.457 36.3359 33.9961 35.9062 32.75 35.0898C32.9648 35.1328 33.1797 35.1328 33.3945 35.1328C34.7266 35.1328 35.9297 34.6602 36.918 33.9297C35.6719 33.8867 34.6406 33.0703 34.2539 31.9531C34.7266 32.0391 35.1133 32.0391 35.543 31.9102C34.2539 31.6523 33.3086 30.5352 33.3086 29.1602V29.1172C33.6523 29.332 34.082 29.4609 34.5547 29.4609C33.7812 28.9453 33.3086 28.0859 33.3086 27.1406C33.3086 26.582 33.4375 26.1094 33.6953 25.6797C35.0703 27.3984 37.1758 28.5156 39.4961 28.6445C39.1094 26.7539 40.5273 25.1641 42.2461 25.1641C43.0625 25.1641 43.793 25.5078 44.3086 26.0664C44.9531 25.9375 45.5547 25.7227 46.1133 25.3789C45.8984 26.0664 45.4258 26.582 44.8672 26.9258C45.4258 26.8828 45.9844 26.7109 46.5 26.4961C46.1133 27.0547 45.5977 27.5703 45.082 27.957Z" fill="white"/>
<defs>
<filter id="filter0_d" x="0" y="0" width="79" height="79" filterUnits="userSpaceOnUse" color-interpolation-filters="sRGB">
<feFlood flood-opacity="0" result="BackgroundImageFix"/>
<feColorMatrix in="SourceAlpha" type="matrix" values="0 0 0 0 0 0 0 0 0 0 0 0 0 0 0 0 0 0 127 0" result="hardAlpha"/>
<feOffset dy="8"/>
<feGaussianBlur stdDeviation="8.5"/>
<feColorMatrix type="matrix" values="0 0 0 0 0.113725 0 0 0 0 0.631372 0 0 0 0 0.94902 0 0 0 0.18 0"/>
<feBlend mode="normal" in2="BackgroundImageFix" result="effect1_dropShadow"/>
<feBlend mode="normal" in="SourceGraphic" in2="effect1_dropShadow" result="shape"/>
</filter>
</defs>
</svg>
