<svg width="32" height="32" viewBox="0 0 32 32" fill="none" xmlns="http://www.w3.org/2000/svg">
<path d="M16 31.5C24.5 31.5 31.5 24.5625 31.5 16C31.5 7.5 24.5 0.5 16 0.5C7.4375 0.5 0.5 7.5 0.5 16C0.5 24.5625 7.4375 31.5 16 31.5ZM9.5 26.75L12.875 23.375C14.8125 24.25 17.125 24.25 19.0625 23.375L22.4375 26.75C18.5 29.125 13.4375 29.125 9.5 26.75ZM21 16C21 18.8125 18.75 21 16 21C13.1875 21 11 18.8125 11 16C11 13.25 13.1875 11 16 11C18.75 11 21 13.25 21 16ZM26.6875 22.5L23.3125 19.125C24.1875 17.1875 24.1875 14.875 23.3125 12.9375L26.6875 9.5625C29.0625 13.5 29.0625 18.5625 26.6875 22.5ZM22.4375 5.3125L19.0625 8.6875C17.125 7.8125 14.8125 7.8125 12.875 8.6875L9.5 5.3125C13.4375 2.9375 18.5 2.9375 22.4375 5.3125ZM5.25 9.5625L8.625 12.9375C7.75 14.875 7.75 17.1875 8.625 19.125L5.25 22.5C2.875 18.5625 2.875 13.5 5.25 9.5625Z" fill="#F15060"/>
</svg>
