<svg width="16" height="17" viewBox="0 0 16 17" fill="none" xmlns="http://www.w3.org/2000/svg">
<path d="M14.0625 0.375H1.6875C0.738281 0.375 0 1.14844 0 2.0625V14.4375C0 15.3867 0.738281 16.125 1.6875 16.125H14.0625C14.9766 16.125 15.75 15.3867 15.75 14.4375V2.0625C15.75 1.14844 14.9766 0.375 14.0625 0.375ZM12.3398 5.96484C12.3398 6.07031 12.3398 6.17578 12.3398 6.28125C12.3398 9.30469 10.0195 12.8203 5.76562 12.8203C4.46484 12.8203 3.26953 12.4688 2.25 11.8008C2.42578 11.8359 2.60156 11.8359 2.77734 11.8359C3.86719 11.8359 4.85156 11.4492 5.66016 10.8516C4.64062 10.8164 3.79688 10.1484 3.48047 9.23438C3.86719 9.30469 4.18359 9.30469 4.53516 9.19922C3.48047 8.98828 2.70703 8.07422 2.70703 6.94922V6.91406C2.98828 7.08984 3.33984 7.19531 3.72656 7.19531C3.09375 6.77344 2.70703 6.07031 2.70703 5.29688C2.70703 4.83984 2.8125 4.45312 3.02344 4.10156C4.14844 5.50781 5.87109 6.42188 7.76953 6.52734C7.45312 4.98047 8.61328 3.67969 10.0195 3.67969C10.6875 3.67969 11.2852 3.96094 11.707 4.41797C12.2344 4.3125 12.7266 4.13672 13.1836 3.85547C13.0078 4.41797 12.6211 4.83984 12.1641 5.12109C12.6211 5.08594 13.0781 4.94531 13.5 4.76953C13.1836 5.22656 12.7617 5.64844 12.3398 5.96484Z" fill="#F15060"/>
</svg>
