<svg width="16" height="17" viewBox="0 0 16 17" fill="none" xmlns="http://www.w3.org/2000/svg">
<path d="M6.53906 6.38672V10.1836L9.91406 8.28516L6.53906 6.38672ZM15.75 2.0625C15.75 1.14844 14.9766 0.375 14.0625 0.375H1.6875C0.738281 0.375 0 1.14844 0 2.0625V14.4375C0 15.3867 0.738281 16.125 1.6875 16.125H14.0625C14.9766 16.125 15.75 15.3867 15.75 14.4375V2.0625ZM14.2734 8.28516C14.2734 8.28516 14.2734 10.3594 13.9922 11.3789C13.8516 11.9414 13.3945 12.3633 12.8672 12.5039C11.8477 12.75 7.875 12.75 7.875 12.75C7.875 12.75 3.86719 12.75 2.84766 12.5039C2.32031 12.3633 1.86328 11.9414 1.72266 11.3789C1.47656 10.3594 1.47656 8.28516 1.47656 8.28516C1.47656 8.28516 1.47656 6.17578 1.72266 5.19141C1.86328 4.62891 2.32031 4.17188 2.84766 4.03125C3.86719 3.75 7.875 3.75 7.875 3.75C7.875 3.75 11.8477 3.75 12.8672 4.03125C13.3945 4.17188 13.8516 4.62891 13.9922 5.19141C14.2734 6.17578 14.2734 8.28516 14.2734 8.28516Z" fill="#F15060"/>
</svg>
