<svg width="79" height="79" viewBox="0 0 79 79" fill="none" xmlns="http://www.w3.org/2000/svg">
<g filter="url(#filter0_d)">
<rect x="17" y="9" width="45" height="45" rx="22.5" fill="#F15060"/>
</g>
<path d="M39.6562 20.0938C33.7695 20.0938 29 24.8633 29 30.75C29 36.6367 33.7695 41.4062 39.6562 41.4062C45.543 41.4062 50.3125 36.6367 50.3125 30.75C50.3125 24.8633 45.543 20.0938 39.6562 20.0938ZM34.8438 30.0625C34.8438 29.6758 35.0156 29.332 35.2734 29.0742L33.9414 28.6875C33.5977 28.5586 33.3828 28.1719 33.4688 27.8281C33.5977 27.4414 33.9844 27.2695 34.3281 27.3555L37.7656 28.3867C38.1523 28.5156 38.3672 28.9023 38.2383 29.2461C38.1523 29.5469 37.8945 29.7188 37.5938 29.7188C37.5508 29.7188 37.5508 29.7188 37.5078 29.7188C37.5508 29.8477 37.5938 29.9766 37.5938 30.0625C37.5938 30.8359 36.9492 31.4375 36.2188 31.4375C35.4453 31.4375 34.8438 30.8359 34.8438 30.0625ZM42.0625 36.7227C40.8594 35.2617 38.4102 35.2617 37.207 36.7227C36.6484 37.4102 35.5742 36.5078 36.1758 35.8203C37.0352 34.7891 38.2812 34.1875 39.6133 34.1875C40.9883 34.1875 42.2344 34.7891 43.0938 35.8203C43.6953 36.5508 42.6211 37.4102 42.0625 36.7227ZM45.3281 28.6875L43.9961 29.0742C44.2539 29.332 44.4688 29.6758 44.4688 30.0625C44.4688 30.8359 43.8242 31.4375 43.0938 31.4375C42.3203 31.4375 41.7188 30.8359 41.7188 30.0625C41.7188 29.9766 41.7617 29.8477 41.7617 29.7188H41.7188C41.418 29.7188 41.1172 29.5469 41.0312 29.2461C40.9453 28.9023 41.1602 28.5156 41.5039 28.3867L44.9414 27.3555C45.2852 27.2695 45.6719 27.4414 45.8008 27.8281C45.8867 28.1719 45.7148 28.5586 45.3281 28.6875Z" fill="white"/>
<defs>
<filter id="filter0_d" x="0" y="0" width="79" height="79" filterUnits="userSpaceOnUse" color-interpolation-filters="sRGB">
<feFlood flood-opacity="0" result="BackgroundImageFix"/>
<feColorMatrix in="SourceAlpha" type="matrix" values="0 0 0 0 0 0 0 0 0 0 0 0 0 0 0 0 0 0 127 0" result="hardAlpha"/>
<feOffset dy="8"/>
<feGaussianBlur stdDeviation="8.5"/>
<feColorMatrix type="matrix" values="0 0 0 0 0.945098 0 0 0 0 0.313725 0 0 0 0 0.376471 0 0 0 0.3 0"/>
<feBlend mode="normal" in2="BackgroundImageFix" result="effect1_dropShadow"/>
<feBlend mode="normal" in="SourceGraphic" in2="effect1_dropShadow" result="shape"/>
</filter>
</defs>
</svg>
