<svg width="79" height="79" viewBox="0 0 79 79" fill="none" xmlns="http://www.w3.org/2000/svg">
<g filter="url(#filter0_d)">
<rect x="17" y="9" width="45" height="45" rx="22.5" fill="#F15060"/>
</g>
<path d="M39.6562 20.0938C33.7695 20.0938 29 24.8633 29 30.75C29 36.6367 33.7695 41.4062 39.6562 41.4062C45.543 41.4062 50.3125 36.6367 50.3125 30.75C50.3125 24.8633 45.543 20.0938 39.6562 20.0938ZM33.0391 27.0117L34.543 26.7969L35.2305 25.4648C35.3164 25.207 35.7031 25.207 35.7891 25.4648L36.4766 26.7969L37.9805 27.0117C38.2383 27.0547 38.3672 27.3984 38.1523 27.6133L37.0781 28.6445L37.3359 30.1484C37.3789 30.4062 37.0781 30.6211 36.8633 30.4922L35.5312 29.8047L34.1562 30.4922C33.9414 30.6211 33.6406 30.4062 33.6836 30.1484L33.9414 28.6445L32.8672 27.6133C32.6523 27.3984 32.7812 27.0547 33.0391 27.0117ZM39.6562 38.3125C37.0352 38.3125 33.8555 36.6797 33.4688 34.3164C33.3828 33.8008 33.8555 33.4141 34.3281 33.543C35.6602 33.9727 37.5938 34.1875 39.6562 34.1875C41.7188 34.1875 43.6094 33.9727 44.9414 33.543C45.4141 33.4141 45.8867 33.8008 45.8008 34.3164C45.4141 36.6797 42.2344 38.3125 39.6562 38.3125ZM46.4023 27.6133L45.3281 28.6445L45.5859 30.1484C45.6289 30.4062 45.3711 30.6211 45.1133 30.4922L43.7812 29.8047L42.4062 30.4922C42.1914 30.6211 41.8906 30.4062 41.9336 30.1484L42.1914 28.6445L41.1172 27.6133C40.9023 27.3984 41.0312 27.0547 41.2891 27.0117L42.793 26.7969L43.4805 25.4648C43.5664 25.207 43.9531 25.207 44.0391 25.4648L44.7266 26.7969L46.2305 27.0117C46.4883 27.0547 46.6172 27.3984 46.4023 27.6133Z" fill="white"/>
<defs>
<filter id="filter0_d" x="0" y="0" width="79" height="79" filterUnits="userSpaceOnUse" color-interpolation-filters="sRGB">
<feFlood flood-opacity="0" result="BackgroundImageFix"/>
<feColorMatrix in="SourceAlpha" type="matrix" values="0 0 0 0 0 0 0 0 0 0 0 0 0 0 0 0 0 0 127 0" result="hardAlpha"/>
<feOffset dy="8"/>
<feGaussianBlur stdDeviation="8.5"/>
<feColorMatrix type="matrix" values="0 0 0 0 0.945098 0 0 0 0 0.313725 0 0 0 0 0.376471 0 0 0 0.3 0"/>
<feBlend mode="normal" in2="BackgroundImageFix" result="effect1_dropShadow"/>
<feBlend mode="normal" in="SourceGraphic" in2="effect1_dropShadow" result="shape"/>
</filter>
</defs>
</svg>
