<svg width="79" height="79" viewBox="0 0 79 79" fill="none" xmlns="http://www.w3.org/2000/svg">
<g filter="url(#filter0_d)">
<rect x="17" y="9" width="45" height="45" rx="22.5" fill="#F15060"/>
</g>
<path d="M39.6562 20.0938C33.7695 20.0938 29 24.8633 29 30.75C29 36.6367 33.7695 41.4062 39.6562 41.4062C45.543 41.4062 50.3125 36.6367 50.3125 30.75C50.3125 24.8633 45.543 20.0938 39.6562 20.0938ZM43.0938 27.3125C43.8242 27.3125 44.4688 27.957 44.4688 28.6875C44.4688 29.4609 43.8242 30.0625 43.0938 30.0625C42.3203 30.0625 41.7188 29.4609 41.7188 28.6875C41.7188 27.957 42.3203 27.3125 43.0938 27.3125ZM36.2188 27.3125C36.9492 27.3125 37.5938 27.957 37.5938 28.6875C37.5938 29.4609 36.9492 30.0625 36.2188 30.0625C35.4453 30.0625 34.8438 29.4609 34.8438 28.6875C34.8438 27.957 35.4453 27.3125 36.2188 27.3125ZM44.5547 34.6602C43.3516 36.1211 41.5469 36.9375 39.6562 36.9375C37.7227 36.9375 35.918 36.1211 34.7148 34.6602C34.1133 33.9297 35.1875 33.0703 35.7461 33.7578C36.7344 34.918 38.1523 35.5625 39.6562 35.5625C41.1602 35.5625 42.5352 34.918 43.5234 33.7578C44.082 33.0703 45.1562 33.9297 44.5547 34.6602Z" fill="white"/>
<defs>
<filter id="filter0_d" x="0" y="0" width="79" height="79" filterUnits="userSpaceOnUse" color-interpolation-filters="sRGB">
<feFlood flood-opacity="0" result="BackgroundImageFix"/>
<feColorMatrix in="SourceAlpha" type="matrix" values="0 0 0 0 0 0 0 0 0 0 0 0 0 0 0 0 0 0 127 0" result="hardAlpha"/>
<feOffset dy="8"/>
<feGaussianBlur stdDeviation="8.5"/>
<feColorMatrix type="matrix" values="0 0 0 0 0.945098 0 0 0 0 0.313725 0 0 0 0 0.376471 0 0 0 0.3 0"/>
<feBlend mode="normal" in2="BackgroundImageFix" result="effect1_dropShadow"/>
<feBlend mode="normal" in="SourceGraphic" in2="effect1_dropShadow" result="shape"/>
</filter>
</defs>
</svg>
