<svg width="79" height="79" viewBox="0 0 79 79" fill="none" xmlns="http://www.w3.org/2000/svg">
<g filter="url(#filter0_d)">
<rect x="17" y="9" width="45" height="45" rx="22.5" fill="#F15060"/>
</g>
<path d="M39.6562 20.0938C33.7695 20.0938 29 24.8633 29 30.75C29 36.6367 33.7695 41.4062 39.6562 41.4062C45.543 41.4062 50.3125 36.6367 50.3125 30.75C50.3125 24.8633 45.543 20.0938 39.6562 20.0938ZM43.0938 27.3125C43.8242 27.3125 44.4688 27.957 44.4688 28.6875C44.4688 29.4609 43.8242 30.0625 43.0938 30.0625C42.3203 30.0625 41.7188 29.4609 41.7188 28.6875C41.7188 27.957 42.3203 27.3125 43.0938 27.3125ZM36.2188 27.3125C36.9492 27.3125 37.5938 27.957 37.5938 28.6875C37.5938 29.4609 36.9492 30.0625 36.2188 30.0625C35.4453 30.0625 34.8438 29.4609 34.8438 28.6875C34.8438 27.957 35.4453 27.3125 36.2188 27.3125ZM43.5234 36.7227C42.5352 35.5625 41.1172 34.875 39.6562 34.875C38.1523 34.875 36.7344 35.5625 35.7461 36.7227C35.1875 37.4102 34.1133 36.5078 34.7148 35.8203C35.918 34.3594 37.7227 33.5 39.6562 33.5C41.5469 33.5 43.3516 34.3594 44.5547 35.8203C45.1562 36.5078 44.082 37.4102 43.5234 36.7227Z" fill="white"/>
<defs>
<filter id="filter0_d" x="0" y="0" width="79" height="79" filterUnits="userSpaceOnUse" color-interpolation-filters="sRGB">
<feFlood flood-opacity="0" result="BackgroundImageFix"/>
<feColorMatrix in="SourceAlpha" type="matrix" values="0 0 0 0 0 0 0 0 0 0 0 0 0 0 0 0 0 0 127 0" result="hardAlpha"/>
<feOffset dy="8"/>
<feGaussianBlur stdDeviation="8.5"/>
<feColorMatrix type="matrix" values="0 0 0 0 0.945098 0 0 0 0 0.313725 0 0 0 0 0.376471 0 0 0 0.3 0"/>
<feBlend mode="normal" in2="BackgroundImageFix" result="effect1_dropShadow"/>
<feBlend mode="normal" in="SourceGraphic" in2="effect1_dropShadow" result="shape"/>
</filter>
</defs>
</svg>
